inDegrees=yes
name=ik_S55_A11_T01
DataType=double
version=3
OpenSimVersion=4.3-2021-08-27-4bc7ad9
endheader
time	pelvis_tilt	pelvis_list	pelvis_rotation	pelvis_tx	pelvis_ty	pelvis_tz	hip_flexion_r	hip_adduction_r	hip_rotation_r	knee_angle_r	knee_angle_r_beta	ankle_angle_r	subtalar_angle_r	mtp_angle_r	hip_flexion_l	hip_adduction_l	hip_rotation_l	knee_angle_l	knee_angle_l_beta	ankle_angle_l	subtalar_angle_l	mtp_angle_l	lumbar_extension	lumbar_bending	lumbar_rotation	arm_flex_r	arm_add_r	arm_rot_r	elbow_flex_r	pro_sup_r	wrist_flex_r	wrist_dev_r	arm_flex_l	arm_add_l	arm_rot_l	elbow_flex_l	pro_sup_l	wrist_flex_l	wrist_dev_l
11.03999999999985	2.078121213064042	0.6665011540009488	39.48773845942929	0	0.9399999999999999	0	29.58926335565623	-9.216467550292975	-8.476128436723268	32.67048108206728	0.5702074630925937	0	0	0	29.58926335565623	-9.216467550292975	-8.476128436723268	32.67048108206728	0.5702074630925937	0	0	0	1.939303478590195	0.01794134668743524	6.605291823537323	90.47034241290622	6.575894572376547	17.78243004142316	34.82863325821307	111.7476531643453	0	0	-1.017865929301518	-6.694378901506847	-1.820489473122113	11.48286153214652	132.2724263222817	0	0
11.05999999999985	2.094977895281842	0.6730754799168565	39.48977146881049	0	0.9399999999999999	0	29.61268073124769	-9.21915697468158	-8.480215795454074	32.69595572279965	0.5706520794491363	0	0	0	29.61268073124769	-9.21915697468158	-8.480215795454074	32.69595572279965	0.5706520794491363	0	0	0	1.956469353356707	0.01186134729955105	6.609942020334921	90.40812508608437	6.587394340750737	17.69853109046692	34.88735774240546	111.7993095883238	0	0	-1.051443521106618	-6.698406910155671	-1.773121625559953	11.45413711055664	132.2492811076695	0	0
11.07999999999985	2.103906419877255	0.6543330909246148	39.48792396677296	0	0.9399999999999999	0	29.64572534253336	-9.22351168289547	-8.486359572715807	32.73152136695725	0.5712728170402792	0	0	0	29.64572534253336	-9.22351168289547	-8.486359572715807	32.73152136695725	0.5712728170402792	0	0	0	1.951622715690659	-0.01019357882619418	6.584810555258345	90.40831939006443	6.650025176169176	17.68972775659721	35.0986501056699	111.8523034642364	0	0	-1.064337917804601	-6.727542560701735	-1.773502811215024	11.47475365156601	132.2005926295207	0	0
11.09999999999985	2.112799830748347	0.6425407356091187	39.47607444767501	0	0.9399999999999999	0	29.65089810115389	-9.224381610976318	-8.487450745421169	32.73700236125333	0.5713684784370288	0	0	0	29.65089810115389	-9.224381610976318	-8.487450745421169	32.73700236125333	0.5713684784370288	0	0	0	1.951148045950994	-0.02580592954545636	6.56782414632983	90.38187383339357	6.720652005494958	17.75850406557397	35.35317848030117	112.136268356306	0	0	-1.053559351031977	-6.730007776229282	-1.792334356050887	11.43700797611827	132.2054560793555	0	0
11.11999999999985	2.126846808181908	0.6330576975929859	39.47782542983725	0	0.9399999999999999	0	29.65226067230534	-9.225192918302726	-8.488121376243408	32.73808527495544	0.5713873788466456	0	0	0	29.65226067230534	-9.225192918302726	-8.488121376243408	32.73808527495544	0.5713873788466456	0	0	0	1.956022801432768	-0.0423057614887546	6.562545813103974	90.35905030869202	6.748748335118956	17.79844469483198	35.3553185369351	112.1306734064759	0	0	-1.069805023801214	-6.7587775471028	-1.810207186767997	11.43706663296368	132.2153540760042	0	0
11.13999999999985	2.123719979925173	0.6265834103204009	39.39932916153073	0	0.9399999999999999	0	29.65678166388766	-9.225940382706879	-8.489065162789917	32.74293849443792	0.5714720835059368	0	0	0	29.65678166388766	-9.225940382706879	-8.489065162789917	32.74293849443792	0.5714720835059368	0	0	0	1.949349236095401	-0.04464411196295169	6.58322202972268	90.36921938193568	6.739509713435611	17.73543742810597	35.72029969785594	112.6200763628781	0	0	-1.069100063546585	-6.746166334827905	-1.898208246024164	11.43533551408319	132.2421893657022	0	0
11.15999999999985	2.138106100906734	0.6189246941740372	39.35450771168189	0	0.9399999999999999	0	29.6993928704108	-9.231470287112263	-8.496932463337561	32.78881090647165	0.5722727081317568	0	0	0	29.6993928704108	-9.231470287112263	-8.496932463337561	32.78881090647165	0.5722727081317568	0	0	0	1.955624802532022	-0.06009730871569101	6.60348619537989	90.3558407079824	6.70717010243001	17.59909380627898	35.91186963535459	113.049895482245	0	0	-1.112089451267236	-6.787172208299602	-1.919648610707265	11.46088963552363	132.2306727868939	0	0
11.17999999999985	2.143984287155698	0.6132430014249638	39.3371901756592	0	0.9399999999999999	0	29.71072017594323	-9.232880828214126	-8.498980679268087	32.80103168839581	0.5724860010135016	0	0	0	29.71072017594323	-9.232880828214126	-8.498980679268087	32.80103168839581	0.5724860010135016	0	0	0	1.956661938027782	-0.0688399855955739	6.594590546700504	90.37801884053643	6.713154260331396	17.61161357008782	35.92079505958471	113.073954253177	0	0	-1.130043605199374	-6.790876003954421	-1.926944247774852	11.44375888639462	132.21412962571	0	0
11.19999999999985	2.151295709053484	0.608775409236043	39.33031189413848	0	0.9399999999999999	0	29.71557689105446	-9.233530659350542	-8.499881157214704	32.80626174664714	0.5725772827500584	0	0	0	29.71557689105446	-9.233530659350542	-8.499881157214704	32.80626174664714	0.5725772827500584	0	0	0	1.959622451244768	-0.07766887304087783	6.579846712753268	90.35654661243835	6.785778084392248	17.72127942845868	35.91298859646572	113.0752652882929	0	0	-1.109800725589689	-6.82001727573037	-1.932583667869164	11.39094345850347	132.2258655749493	0	0
11.21999999999985	2.158701211506661	0.6053057087628171	39.32137472645087	0	0.9399999999999999	0	29.73357616429967	-9.236081973617157	-8.503349846520871	32.8254824328118	0.5729127470081242	0	0	0	29.73357616429967	-9.236081973617157	-8.503349846520871	32.8254824328118	0.5729127470081242	0	0	0	1.963279611233073	-0.08578842383043828	6.572638335246301	90.35961818950747	6.789275542952297	17.71383891612292	35.94381456466716	113.0859648949203	0	0	-1.13120824183108	-6.825663707705042	-1.916265486285456	11.42703680262982	132.1913050934787	0	0
11.23999999999985	2.155169830196081	0.6010514639146344	39.30098509461825	0	0.9399999999999999	0	29.73474262929403	-9.236243125855353	-8.503559991865378	32.82674788938008	0.5729348333917818	0	0	0	29.73474262929403	-9.236243125855353	-8.503559991865378	32.82674788938008	0.5729348333917818	0	0	0	1.957809543918018	-0.08657989337933471	6.578397863545504	90.36171145084921	6.816618091888165	17.77935010042702	35.88344787303715	113.2671311142607	0	0	-1.087786343693471	-6.830214670179735	-1.903122337483574	11.39179834597158	132.2137924155704	0	0
11.25999999999985	2.16284824905786	0.6072860705236444	39.2842921653203	0	0.9399999999999999	0	29.74257209025118	-9.237591277410594	-8.505223105506882	32.83495739929625	0.573078116369794	0	0	0	29.74257209025118	-9.237591277410594	-8.505223105506882	32.83495739929625	0.573078116369794	0	0	0	1.967760069445823	-0.08702048624062504	6.573346760011261	90.36433209272285	6.816922754780792	17.7449790372379	35.88830948980476	113.2692883748848	0	0	-1.100262666778076	-6.817224001638777	-1.877837392349383	11.38622723811867	132.2018435504077	0	0
11.27999999999985	2.17386827909278	0.6144604604200468	39.26063159961897	0	0.9399999999999999	0	29.74241372950555	-9.237943355324861	-8.505436164227193	32.83455811752543	0.57307114758825	0	0	0	29.74241372950555	-9.237943355324861	-8.505436164227193	32.83455811752543	0.57307114758825	0	0	0	1.980810969923723	-0.08823191042133217	6.578474570481078	90.33834257802209	6.837258459561981	17.70912088820649	35.84639666091477	113.4698516181799	0	0	-1.07833684938095	-6.822445671110044	-1.85254526146937	11.33610754444629	132.1661283850809	0	0
11.29999999999985	2.189293509099968	0.6036167554427337	39.22376021745622	0	0.9399999999999999	0	29.74588614243639	-9.238811629818109	-8.506349466238651	32.83804269027287	0.5731319648557182	0	0	0	29.74588614243639	-9.238811629818109	-8.506349466238651	32.83804269027287	0.5731319648557182	0	0	0	1.985949038237825	-0.1066454784482101	6.574980596118305	90.35862064103408	6.86757136484831	17.54809789838622	35.8362638389878	113.5494127218852	0	0	-1.06767360933329	-6.855479739767143	-1.858160240458403	11.2975998363425	132.1736321571462	0	0
11.31999999999985	2.184601984122387	0.6083743404979931	39.1910036891295	0	0.9399999999999999	0	29.74738156790869	-9.23905637179616	-8.506660094129597	32.83964879369189	0.5731599966485075	0	0	0	29.74738156790869	-9.23905637179616	-8.506660094129597	32.83964879369189	0.5731599966485075	0	0	0	1.985301759887577	-0.09991931785681264	6.577345510039574	90.39116357631472	6.858046025256122	17.38002155562123	35.8211675888242	113.5569503858862	0	0	-1.061723314532892	-6.82207260547217	-1.851608794710641	11.29877085802541	132.1733978575999	0	0
11.33999999999985	2.19096425067766	0.6030649345913592	39.15938166496388	0	0.9399999999999999	0	29.74911673566392	-9.239341265369317	-8.507021271123813	32.84150701367015	0.5731924287053544	0	0	0	29.74911673566392	-9.239341265369317	-8.507021271123813	32.84150701367015	0.5731924287053544	0	0	0	1.986791467898261	-0.1076418143932804	6.588274653286196	90.4217986945758	6.800083526876721	17.22562864754029	35.82732538097492	113.6348423730412	0	0	-1.031868723773532	-6.788960816417636	-1.837981677763656	11.28879305449627	132.1501648800242	0	0
11.35999999999985	2.196646744452942	0.5856489166994717	39.14565401186266	0	0.9399999999999999	0	29.76708729482874	-9.241728339465359	-8.510374827082428	32.86080765778347	0.5735292884928875	0	0	0	29.76708729482874	-9.241728339465359	-8.510374827082428	32.86080765778347	0.5735292884928875	0	0	0	1.980053806368624	-0.1242077519656064	6.612473932661812	90.44369579435364	6.724922966295112	17.08567991901669	35.87206863252792	113.7975449739281	0	0	-0.9557743596428629	-6.787574777271014	-1.755855092358579	11.21007713907401	132.0127515334186	0	0
11.37999999999985	2.20004862011478	0.5748890984317899	39.13798293804538	0	0.9399999999999999	0	29.79082091514672	-9.244769140622113	-8.514734391525307	32.88636775092041	0.5739753962752435	0	0	0	29.79082091514672	-9.244769140622113	-8.514734391525307	32.88636775092041	0.5739753962752435	0	0	0	1.97597434334004	-0.13514413541159	6.61581048463296	90.4535655216192	6.697636101662257	17.14054725709794	35.8830003917072	113.6292385637529	0	0	-0.9181974750484556	-6.787202992714748	-1.715968857140157	11.18341574234894	131.9331437923117	0	0
11.39999999999985	2.206754238232651	0.5610460669015714	39.15157191331579	0	0.9399999999999999	0	29.79243729038975	-9.2450328001364	-8.515069613314408	32.88810249736025	0.574005673312306	0	0	0	29.79243729038975	-9.2450328001364	-8.515069613314408	32.88810249736025	0.574005673312306	0	0	0	1.972531182493733	-0.1505559889483556	6.606079746914015	90.45488124149082	6.68615849348328	17.2666129203363	35.88427024748881	113.5790730532194	0	0	-0.9042190526454547	-6.819582540280932	-1.75856192057346	11.18657934077024	131.8645881817604	0	0
11.41999999999985	2.202140322735158	0.5650494436558021	39.15016536450041	0	0.9399999999999999	0	29.79480981360916	-9.245420531452693	-8.515562231762845	32.89064494453714	0.5740500473866007	0	0	0	29.79480981360916	-9.245420531452693	-8.515562231762845	32.89064494453714	0.5740500473866007	0	0	0	1.97148446987167	-0.1445713176313909	6.606865163137422	90.44419025531694	6.667430207835951	17.47273544449862	35.906603271519	113.5332500618585	0	0	-0.9007690008680997	-6.815269671336357	-1.751399356507127	11.19095066887848	131.8216008725394	0	0
11.43999999999984	2.200789943467407	0.57118801904504	39.13774003647754	0	0.9399999999999999	0	29.7992712600705	-9.246162071653465	-8.516498723356651	32.89535447052148	0.5741322441212356	0	0	0	29.7992712600705	-9.246162071653465	-8.516498723356651	32.89535447052148	0.5741322441212356	0	0	0	1.973997537733505	-0.1373427337719748	6.648515443414965	90.48489785109818	6.399441735566043	17.52715046006328	35.99073274082964	113.5276281310362	0	0	-0.9105490858607419	-6.731183136192802	-1.692820735680521	11.18596240333931	131.7326460539686	0	0
11.45999999999984	2.208006840353094	0.5699446627462584	39.15263640261077	0	0.9399999999999999	0	29.81283257849017	-9.247959869900228	-8.51902391499177	32.90997362415838	0.5743873964860546	0	0	0	29.81283257849017	-9.247959869900228	-8.51902391499177	32.90997362415838	0.5743873964860546	0	0	0	1.978768028201495	-0.1427824259976654	6.659030211140034	90.47490912786581	6.369887563043814	17.52880954667577	35.99184164631103	113.5736291128876	0	0	-0.9232230865288252	-6.736989013914973	-1.646208907297051	11.17301247089404	131.7011370706716	0	0
